<?xml version="1.0" encoding="iso-8859-1"?>
<!-- Generator: Adobe Illustrator 19.0.0, SVG Export Plug-In . SVG Version: 6.00 Build 0)  -->
<svg version="1.1" id="Layer_1" xmlns="http://www.w3.org/2000/svg" xmlns:xlink="http://www.w3.org/1999/xlink" x="0px" y="0px"
	 viewBox="0 0 512 512" style="enable-background:new 0 0 512 512;" xml:space="preserve">
<g>
	<g>
		<path d="M76.131,96.998v358.851h0h358.851V96.998H76.131z M186.663,440.261H91.719V203.124h94.943V440.261z M419.394,440.261
			H202.252v-0.001V203.124h217.142V440.261z M419.394,187.536H91.721v-74.948h327.674V187.536z"/>
	</g>
</g>
<g>
	<g>
		<polygon points="333.342,19.982 322.317,31.004 335.467,44.153 208.894,44.153 208.894,59.742 335.468,59.742 322.317,72.892 
			333.342,83.914 365.308,51.948 		"/>
	</g>
</g>
<g>
	<g>
		<polygon points="156.412,44.153 29.84,44.153 42.988,31.004 31.966,19.982 0,51.948 31.966,83.914 42.988,72.892 29.84,59.742 
			156.412,59.742 		"/>
	</g>
</g>
<g>
	<g>
		<rect x="174.603" y="44.153" width="15.589" height="15.589"/>
	</g>
</g>
<g>
	<g>
		<polygon points="480.033,126.712 448.066,158.677 459.09,169.7 472.239,156.551 472.239,283.124 487.827,283.124 487.827,156.551 
			500.977,169.7 512,158.677 		"/>
	</g>
</g>
<g>
	<g>
		<polygon points="500.977,449.03 487.827,462.179 487.827,335.606 472.239,335.606 472.239,462.179 459.09,449.03 448.066,460.053 
			480.033,492.018 512,460.053 		"/>
	</g>
</g>
<g>
	<g>
		<rect x="472.243" y="301.308" width="15.589" height="15.589"/>
	</g>
</g>
<g>
</g>
<g>
</g>
<g>
</g>
<g>
</g>
<g>
</g>
<g>
</g>
<g>
</g>
<g>
</g>
<g>
</g>
<g>
</g>
<g>
</g>
<g>
</g>
<g>
</g>
<g>
</g>
<g>
</g>
</svg>
