<?xml version="1.0" encoding="iso-8859-1"?>
<!-- Generator: Adobe Illustrator 19.0.0, SVG Export Plug-In . SVG Version: 6.00 Build 0)  -->
<svg xmlns="http://www.w3.org/2000/svg" xmlns:xlink="http://www.w3.org/1999/xlink" version="1.1" id="Capa_1" x="0px" y="0px" viewBox="0 0 54.826 54.826" style="enable-background:new 0 0 54.826 54.826;" xml:space="preserve" width="512px" height="512px">
<g>
	<path d="M45.238,33.945c-1.431,0-2.832,0.337-4.113,0.947c-1.485-1.848-3.224-3.438-5.193-4.752   c2.671-3.021,4.307-6.976,4.307-11.315c0-9.441-7.68-17.12-17.12-17.12c-2.311,0-4.554,0.453-6.667,1.348   c-0.509,0.215-0.747,0.802-0.531,1.311c0.215,0.509,0.801,0.746,1.31,0.531c1.866-0.789,3.847-1.189,5.888-1.189   c8.337,0,15.12,6.783,15.12,15.12s-6.783,15.12-15.12,15.12s-15.12-6.783-15.12-15.12c0-4.071,1.597-7.892,4.496-10.756   c0.393-0.388,0.397-1.02,0.009-1.414c-0.389-0.392-1.022-0.397-1.414-0.008c-3.283,3.242-5.09,7.567-5.09,12.178   c0,4.332,1.63,8.282,4.293,11.301C3.917,34.393,0,41.647,0,49.353v2.769c0,0.553,0.448,1,1,1h37.226c0.552,0,1-0.447,1-1v-1.13   c1.646,1.329,3.736,2.13,6.012,2.13c5.287,0,9.588-4.301,9.588-9.588C54.826,38.247,50.525,33.945,45.238,33.945z M29.021,34.875   c-0.871,2.431-3.2,4.158-5.901,4.158c-2.704,0-5.032-1.727-5.902-4.158c1.843,0.68,3.825,1.07,5.902,1.07   C25.195,35.945,27.177,35.555,29.021,34.875z M13.306,51.122v-6.125c0-0.553-0.448-1-1-1c-0.552,0-1,0.447-1,1v6.125H2v-1.769   c0-7.171,3.716-13.911,9.734-17.778c0.976,0.872,2.04,1.647,3.196,2.279c0.537,4.068,4.023,7.178,8.189,7.178   c4.163,0,7.651-3.111,8.189-7.179c1.153-0.631,2.214-1.402,3.187-2.271c1.859,1.191,3.501,2.651,4.904,4.354   c-2.334,1.802-3.748,4.616-3.748,7.597c0,1.939,0.583,3.742,1.576,5.253v2.335H13.306z M45.238,51.122   c-4.184,0-7.588-3.404-7.588-7.588c0-2.666,1.426-5.169,3.722-6.53c1.167-0.692,2.503-1.059,3.867-1.059   c4.184,0,7.588,3.404,7.588,7.589C52.826,47.717,49.422,51.122,45.238,51.122z" fill="#666666"/>
	<path d="M50.66,40.092c-0.383-0.399-1.015-0.414-1.414-0.031l-4.889,4.68l-2.012-2.98c-0.308-0.457-0.93-0.577-1.388-0.27   c-0.458,0.31-0.578,0.931-0.269,1.389l2.675,3.963c0.165,0.244,0.429,0.403,0.722,0.435c0.036,0.004,0.071,0.006,0.107,0.006   c0.256,0,0.504-0.099,0.691-0.277l5.746-5.499C51.027,41.125,51.042,40.492,50.66,40.092z" fill="#666666"/>
</g>
<g>
</g>
<g>
</g>
<g>
</g>
<g>
</g>
<g>
</g>
<g>
</g>
<g>
</g>
<g>
</g>
<g>
</g>
<g>
</g>
<g>
</g>
<g>
</g>
<g>
</g>
<g>
</g>
<g>
</g>
</svg>
