<?xml version="1.0" encoding="iso-8859-1"?>
<!-- Generator: Adobe Illustrator 19.0.0, SVG Export Plug-In . SVG Version: 6.00 Build 0)  -->
<svg version="1.1" id="Layer_1" xmlns="http://www.w3.org/2000/svg" xmlns:xlink="http://www.w3.org/1999/xlink" x="0px" y="0px"
	 viewBox="0 0 512 512" style="enable-background:new 0 0 512 512;" xml:space="preserve">
<path style="fill:#00D7DF;" d="M275.944,81.063c42.232,0,76.467,33.155,76.467,85.804c0,27.481-9.334,54.826-24.259,74.698
	c-9.567,12.738-8.96,30.707,1.719,42.537c9.99,11.067,23.545,18.993,39.123,21.923l0,0c33.134,6.23,57.127,35.058,57.127,68.64
	v45.07H125.673v-45.07c0-33.582,23.993-62.411,57.127-68.64l0,0c15.578-2.929,29.133-10.855,39.124-21.923
	c10.679-11.829,11.286-29.798,1.719-42.537c-14.926-19.872-24.259-47.217-24.259-74.698c0-52.649,34.235-85.804,76.467-85.804
	C275.85,81.063,275.944,81.063,275.944,81.063z"/>
<ellipse style="fill:#F66232;" cx="423.058" cy="414.25" rx="81.105" ry="81.032"/>
<polygon style="fill:#FFFFFF;" points="461.457,406.412 430.896,406.412 430.896,375.884 415.223,375.884 415.223,406.412 
	384.66,406.412 384.66,422.085 415.223,422.085 415.223,452.613 430.896,452.613 430.896,422.085 461.457,422.085 "/>
<path d="M112.073,172.513c-14.209-18.915-22.69-45.079-22.69-69.991c0-23.222,7.019-43.037,20.297-57.306
	c12.399-13.322,29.564-20.66,48.427-20.66c25.39,0,46.824,12.913,58.805,35.426l13.837-7.363
	c-14.574-27.387-41.731-43.736-72.734-43.736c-23.171,0-44.411,9.112-59.807,25.656c-16.028,17.221-24.498,40.729-24.498,67.984
	c0,28.607,9.416,57.55,25.831,79.404c7.405,9.86,6.871,23.561-1.271,32.579c-9.202,10.194-21.221,16.927-34.754,19.473
	C26.713,240.897,0,273.004,0,310.32v52.906h95.926v-15.673H15.673V310.32c0-29.783,21.339-55.411,50.738-60.938
	c16.933-3.184,31.973-11.612,43.493-24.373C123.06,210.434,123.973,188.357,112.073,172.513z"/>
<rect x="218.634" y="411.899" width="102.578" height="15.673"/>
<path d="M390.315,322.908l8.623-13.088c-8.653-5.7-18.241-9.567-28.493-11.493c-13.538-2.55-25.555-9.283-34.753-19.474
	c-8.147-9.024-8.684-22.727-1.278-32.582c16.419-21.845,25.835-50.787,25.835-79.405c0-27.254-8.471-50.762-24.498-67.984
	c-15.398-16.546-36.636-25.659-59.898-25.659c-23.172,0-44.412,9.112-59.808,25.657c-16.024,17.221-24.493,40.729-24.493,67.984
	c0,28.612,9.412,57.553,25.824,79.405c7.41,9.86,6.878,23.562-1.266,32.583c-9.094,10.075-20.946,16.772-34.302,19.386l-0.458,0.086
	c-36.803,6.913-63.515,39.021-63.515,76.344v52.905h48.035v-15.673h-32.362v-37.232c0-29.615,21.086-55.116,50.218-60.84l0.533-0.1
	c16.937-3.192,31.975-11.62,43.486-24.373c13.162-14.576,14.071-36.657,2.164-52.501c-14.203-18.91-22.682-45.074-22.682-69.99
	c0-23.222,7.019-43.038,20.295-57.306c12.398-13.323,29.563-20.661,48.428-20.661c18.767,0,35.931,7.337,48.33,20.662
	c13.28,14.27,20.299,34.086,20.299,57.306c0,24.921-8.482,51.084-22.691,69.988c-11.905,15.841-10.99,37.921,2.172,52.501
	c11.515,12.756,26.552,21.184,43.491,24.374C375.748,315.27,383.409,318.357,390.315,322.908z"/>
<path d="M423.059,325.378c-49.043,0-88.942,39.867-88.942,88.871c0,49.003,39.899,88.87,88.942,88.87S512,463.251,512,414.249
	C512,365.245,472.101,325.378,423.059,325.378z M423.059,487.445c-40.4,0-73.268-32.836-73.268-73.196s32.868-73.197,73.268-73.197
	s73.267,32.836,73.267,73.197C496.327,454.609,463.459,487.445,423.059,487.445z"/>
<rect x="184.153" y="411.899" width="15.673" height="15.673"/>
<g>
</g>
<g>
</g>
<g>
</g>
<g>
</g>
<g>
</g>
<g>
</g>
<g>
</g>
<g>
</g>
<g>
</g>
<g>
</g>
<g>
</g>
<g>
</g>
<g>
</g>
<g>
</g>
<g>
</g>
</svg>
